# File created by Blade
# Date/Time:  Tue Jan 27 18:01:49 2015
# Frame Rate: 120.000 fps
#------------------------------------------------------
:FULLY-SPECIFIED
:DEGREES
2460
root -1.652750 31.971010 -6.127086 9.089037 15.285939 3.533252
Spine -4.908312 -17.524911 -5.610799
Head -10.521066 -47.192344 13.109868
LeftShoulder -12.970143 14.332540 7.841950
LeftArm 26.299851 41.880742 -70.611210
LeftForeArm -3.734127 -0.000000 12.016775
LeftHand -11.168044 0.000000 -6.135993
LeftHandThumb1 -26.253704 0.000000 33.147579
RightShoulder -14.601927 14.320584 -46.508019
RightArm 0.759303 64.726734 17.466650
RightForeArm 28.326148 -0.000000 104.246293
RightHand -3.693656 -0.000000 8.995402
RightHandThumb1 -24.326973 -0.000000 -32.862282
LeftUpLeg -4.154199 -3.694141 0.238829
LeftLeg -0.784183 -0.000000 0.000000
LeftFoot -13.573470 12.725205 -24.457303
LeftToeBase 8.569388 -0.000000 -0.000000
RightUpLeg 0.283259 -9.282739 -2.154545
RightLeg -3.749212 -0.000000 0.000000
RightFoot -15.753246 -17.264553 11.403076
RightToeBase 5.122419 -0.000000 -0.000000
2461
root -1.645829 31.970816 -6.130307 9.095629 15.460929 3.558734
Spine -4.896151 -17.536298 -5.644872
Head -10.403896 -47.100159 13.036733
LeftShoulder -12.980848 14.277180 7.835208
LeftArm 26.384839 41.887403 -70.571830
LeftForeArm -3.843108 0.000000 12.210552
LeftHand -11.175024 -0.000000 -5.613032
LeftHandThumb1 -26.253704 0.000000 33.147579
RightShoulder -14.597735 14.184318 -46.488798
RightArm 0.813577 64.574946 17.562033
RightForeArm 28.389749 -0.000000 104.157562
RightHand -3.557333 -0.000000 8.919035
RightHandThumb1 -24.326973 -0.000000 -32.862282
LeftUpLeg -4.160605 -3.765133 0.222545
LeftLeg -0.829172 -0.000000 0.000000
LeftFoot -13.485019 12.663341 -24.378532
LeftToeBase 8.592705 -0.000000 -0.000000
RightUpLeg 0.306254 -9.189067 -2.186875
RightLeg -3.729483 -0.000000 0.000000
RightFoot -15.831731 -17.439702 11.509460
RightToeBase 5.109576 -0.000000 -0.000000
2462
root -1.641751 31.969069 -6.132622 9.077711 15.628258 3.542259
Spine -4.867161 -17.509699 -5.645789
Head -10.301481 -46.975042 12.959208
LeftShoulder -13.005226 14.242152 7.837918
LeftArm 26.557215 41.950586 -70.485216
LeftForeArm -3.904844 -0.000000 12.329082
LeftHand -11.186883 -0.000000 -5.537494
LeftHandThumb1 -26.253704 0.000000 33.147579
RightShoulder -14.595067 14.030195 -46.445516
RightArm 0.790382 64.458061 17.540009
RightForeArm 28.446704 -0.000000 104.071861
RightHand -3.556797 -0.000000 8.913748
RightHandThumb1 -24.326973 -0.000000 -32.862282
LeftUpLeg -4.169872 -3.804297 0.249868
LeftLeg -0.823139 -0.000000 0.000000
LeftFoot -13.452706 12.535261 -24.357820
LeftToeBase 8.606674 -0.000000 -0.000000
RightUpLeg 0.338209 -9.129269 -2.169836
RightLeg -3.706686 -0.000000 0.000000
RightFoot -15.885792 -17.602969 11.550663
RightToeBase 5.090377 -0.000000 -0.000000
2463
root -1.635741 31.968662 -6.135213 9.070923 15.781796 3.556020
Spine -4.850095 -17.482351 -5.681092
Head -10.151379 -46.812308 12.874530
LeftShoulder -12.996765 14.172481 7.858817
LeftArm 26.598852 41.979647 -70.496627
LeftForeArm -4.007380 -0.000000 12.422997
LeftHand -11.118428 -0.000000 -5.475886
LeftHandThumb1 -26.253704 0.000000 33.147579
RightShoulder -14.586833 13.887456 -46.391102
RightArm 0.881971 64.358493 17.630388
RightForeArm 28.478043 0.000000 103.983802
RightHand -3.584308 -0.000000 8.811132
RightHandThumb1 -24.326973 -0.000000 -32.862282
LeftUpLeg -4.182579 -3.894928 0.244565
LeftLeg -0.815479 -0.000000 0.000000
LeftFoot -13.410248 12.491400 -24.321145
LeftToeBase 8.539345 -0.000000 -0.000000
RightUpLeg 0.362716 -9.117093 -2.183083
RightLeg -3.682461 -0.000000 0.000000
RightFoot -15.942609 -17.710313 11.604864
RightToeBase 5.109754 -0.000000 -0.000000
2464
root -1.629190 31.968654 -6.138732 9.063667 15.907884 3.566039
Spine -4.839790 -17.417016 -5.700653
Head -9.999479 -46.659871 12.742184
LeftShoulder -12.990837 14.174640 7.844263
LeftArm 26.739909 41.985377 -70.431680
LeftForeArm -4.092961 -0.000000 12.488066
LeftHand -11.078345 -0.000000 -5.469219
LeftHandThumb1 -26.253704 0.000000 33.147579
RightShoulder -14.586951 13.838692 -46.378127
RightArm 0.890098 64.158177 17.628804
RightForeArm 28.233255 -0.000000 103.919689
RightHand -3.642189 -0.000000 8.882061
RightHandThumb1 -24.326973 -0.000000 -32.862282
LeftUpLeg -4.194249 -3.981284 0.237243
LeftLeg -0.808366 -0.000000 0.000000
LeftFoot -13.403258 12.471002 -24.310614
LeftToeBase 8.617150 -0.000000 -0.000000
RightUpLeg 0.380255 -9.116771 -2.192274
RightLeg -3.662005 -0.000000 0.000000
RightFoot -15.981439 -17.817629 11.631380
RightToeBase 5.171308 -0.000000 -0.000000
2465
root -1.623828 31.968454 -6.143416 9.065400 16.038418 3.576583
Spine -4.833309 -17.368525 -5.718879
Head -9.866950 -46.413456 12.597907
LeftShoulder -13.004520 14.146630 7.833059
LeftArm 26.789664 41.945430 -70.434555
LeftForeArm -4.106134 -0.000000 12.571229
LeftHand -11.099437 -0.000000 -5.507673
LeftHandThumb1 -26.253704 0.000000 33.147579
RightShoulder -14.518695 13.752112 -46.303461
RightArm 0.776653 64.064550 17.466683
RightForeArm 28.262847 -0.000000 103.834778
RightHand -3.589038 -0.000000 8.866379
RightHandThumb1 -24.326973 -0.000000 -32.862282
LeftUpLeg -4.223858 -4.101447 0.234452
LeftLeg -0.783229 -0.000000 0.000000
LeftFoot -13.405817 12.473385 -24.282525
LeftToeBase 8.598479 -0.000000 -0.000000
RightUpLeg 0.378533 -9.171247 -2.194979
RightLeg -3.624249 -0.000000 0.000000
RightFoot -16.008477 -17.895107 11.609408
RightToeBase 5.122711 -0.000000 -0.000000
2466
root -1.618758 31.968644 -6.146966 9.060632 16.153514 3.593226
Spine -4.819364 -17.334385 -5.747555
Head -9.715076 -46.107980 12.449366
LeftShoulder -13.068718 14.134535 7.803591
LeftArm 26.813025 41.899057 -70.437235
LeftForeArm -4.071747 -0.000000 12.682239
LeftHand -11.080781 0.000000 -5.520272
LeftHandThumb1 -26.253704 0.000000 33.147579
RightShoulder -14.529485 13.626772 -46.274122
RightArm 1.057629 64.011913 17.769265
RightForeArm 28.005993 -0.000000 103.775363
RightHand -3.670851 -0.000000 8.958400
RightHandThumb1 -24.326973 -0.000000 -32.862282
LeftUpLeg -4.242813 -4.222021 0.223208
LeftLeg -0.761731 -0.000000 0.000000
LeftFoot -13.406733 12.501537 -24.263801
LeftToeBase 8.603137 -0.000000 -0.000000
RightUpLeg 0.391013 -9.232072 -2.205606
RightLeg -3.604768 -0.000000 0.000000
RightFoot -16.021068 -17.956543 11.598326
RightToeBase 5.310790 -0.000000 -0.000000
2467
root -1.613742 31.968571 -6.150081 9.049383 16.238173 3.598122
Spine -4.804963 -17.260673 -5.765320
Head -9.570133 -45.655339 12.288914
LeftShoulder -13.111878 14.147011 7.774959
LeftArm 26.893324 41.873471 -70.428223
LeftForeArm -4.024639 -0.000000 12.684532
LeftHand -11.009018 -0.000000 -5.444050
LeftHandThumb1 -26.253704 0.000000 33.147579
RightShoulder -14.495281 13.457248 -46.199868
RightArm 1.185788 63.973503 17.863391
RightForeArm 28.051396 0.000000 103.703433
RightHand -3.643166 -0.000000 8.809041
RightHandThumb1 -24.326973 -0.000000 -32.862282
LeftUpLeg -4.249131 -4.349581 0.220958
LeftLeg -0.749402 -0.000000 0.000000
LeftFoot -13.427874 12.564464 -24.241246
LeftToeBase 8.590622 -0.000000 -0.000000
RightUpLeg 0.404021 -9.306985 -2.207089
RightLeg -3.585631 -0.000000 0.000000
RightFoot -16.021224 -17.975239 11.562553
RightToeBase 5.093501 -0.000000 -0.000000
2468
root -1.608520 31.969171 -6.153097 9.041236 16.318158 3.614633
Spine -4.787600 -17.191939 -5.786205
Head -9.417930 -45.238294 12.108650
LeftShoulder -13.142548 14.160856 7.743970
LeftArm 26.881573 41.820592 -70.447902
LeftForeArm -3.873938 -0.000000 12.781619
LeftHand -11.153950 -0.000000 -6.134213
LeftHandThumb1 -26.253704 0.000000 33.147579
RightShoulder -14.478654 13.354188 -46.167267
RightArm 1.281573 63.912108 17.946911
RightForeArm 27.872891 -0.000000 103.653670
RightHand -3.720566 0.000000 8.939571
RightHandThumb1 -24.326973 -0.000000 -32.862282
LeftUpLeg -4.262367 -4.463943 0.206764
LeftLeg -0.719565 -0.000000 0.000000
LeftFoot -13.435092 12.606961 -24.221457
LeftToeBase 8.566445 -0.000000 -0.000000
RightUpLeg 0.410781 -9.426091 -2.219820
RightLeg -3.557639 -0.000000 0.000000
RightFoot -16.030834 -17.950620 11.535913
RightToeBase 5.139615 -0.000000 -0.000000
2469
root -1.603542 31.969455 -6.155434 9.029939 16.364886 3.616562
Spine -4.798472 -17.075381 -5.792275
Head -9.236469 -44.677952 11.927303
LeftShoulder -13.143779 14.169214 7.702025
LeftArm 26.832645 41.759570 -70.469023
LeftForeArm -3.810456 0.000000 12.880987
LeftHand -11.094194 0.000000 -5.412250
LeftHandThumb1 -26.253704 0.000000 33.147579
RightShoulder -14.426199 13.171513 -46.108736
RightArm 1.440709 63.910289 18.087245
RightForeArm 27.992936 0.000000 103.582870
RightHand -3.658577 -0.000000 8.934535
RightHandThumb1 -24.326973 -0.000000 -32.862282
LeftUpLeg -4.272681 -4.554587 0.204945
LeftLeg -0.686877 -0.000000 0.000000
LeftFoot -13.465880 12.645780 -24.224075
LeftToeBase 8.573674 -0.000000 -0.000000
RightUpLeg 0.418425 -9.510888 -2.221363
RightLeg -3.542514 -0.000000 0.000000
RightFoot -16.021059 -17.939485 11.514172
RightToeBase 5.110649 -0.000000 -0.000000
2470
root -1.598389 31.969980 -6.158468 9.021312 16.420407 3.626042
Spine -4.798288 -16.986593 -5.803042
Head -9.043577 -44.134922 11.723423
LeftShoulder -13.179874 14.160153 7.666333
LeftArm 26.791017 41.756908 -70.477987
LeftForeArm -3.788044 -0.000000 12.936530
LeftHand -11.120197 -0.000000 -5.444878
LeftHandThumb1 -26.253704 0.000000 33.147579
RightShoulder -14.396150 13.070458 -46.051534
RightArm 1.623700 63.850459 18.210974
RightForeArm 27.992081 -0.000000 103.497730
RightHand -3.617539 -0.000000 9.082193
RightHandThumb1 -24.326973 -0.000000 -32.862282
LeftUpLeg -4.282461 -4.669563 0.196375
LeftLeg -0.658906 -0.000000 0.000000
LeftFoot -13.495545 12.701150 -24.241176
LeftToeBase 8.576431 -0.000000 -0.000000
RightUpLeg 0.432828 -9.601569 -2.233743
RightLeg -3.540885 -0.000000 0.000000
RightFoot -16.016919 -17.913378 11.529860
RightToeBase 5.308428 -0.000000 -0.000000
2471
root -1.594953 31.969930 -6.162570 9.007702 16.443003 3.621400
Spine -4.812577 -16.842538 -5.809027
Head -8.774358 -43.439302 11.445047
LeftShoulder -13.135696 14.213895 7.650634
LeftArm 26.788812 41.731573 -70.480654
LeftForeArm -3.750118 -0.000000 12.946571
LeftHand -11.142335 -0.000000 -5.404708
LeftHandThumb1 -26.253704 0.000000 33.147579
RightShoulder -14.542378 13.888892 -46.329499
RightArm 1.474589 62.795958 18.175737
RightForeArm 27.952661 0.000000 103.439156
RightHand -3.702312 0.000000 8.955456
RightHandThumb1 -24.326973 -0.000000 -32.862282
LeftUpLeg -4.294315 -4.746093 0.198756
LeftLeg -0.624276 -0.000000 0.000000
LeftFoot -13.543274 12.743004 -24.252504
LeftToeBase 8.593182 -0.000000 -0.000000
RightUpLeg 0.440022 -9.653579 -2.235659
RightLeg -3.533810 -0.000000 0.000000
RightFoot -16.006585 -17.880053 11.488410
RightToeBase 5.127307 -0.000000 -0.000000
2472
root -1.590120 31.970148 -6.165824 9.002513 16.459226 3.631449
Spine -4.824598 -16.738276 -5.814363
Head -8.558112 -42.701075 11.210998
LeftShoulder -13.150221 14.272150 7.592910
LeftArm 26.709126 41.622822 -70.524359
LeftForeArm -3.580499 -0.000000 12.999343
LeftHand -11.122294 -0.000000 -5.407624
LeftHandThumb1 -26.253704 0.000000 33.147579
RightShoulder -14.517918 14.113500 -46.397321
RightArm 1.367217 62.435277 18.098509
RightForeArm 28.022473 -0.000000 103.382407
RightHand -3.654465 -0.000000 9.109153
RightHandThumb1 -24.326973 -0.000000 -32.862282
LeftUpLeg -4.307796 -4.792145 0.178885
LeftLeg -0.582934 -0.000000 0.000000
LeftFoot -13.580061 12.768881 -24.268066
LeftToeBase 8.597216 -0.000000 -0.000000
RightUpLeg 0.449724 -9.698054 -2.261333
RightLeg -3.519393 -0.000000 0.000000
RightFoot -15.986741 -17.812157 11.437410
RightToeBase 5.081673 -0.000000 -0.000000
